<?xml version="1.0" encoding="UTF-8" standalone="no"?>
<!DOCTYPE svg PUBLIC "-//W3C//DTD SVG 1.1//EN"
 "http://www.w3.org/Graphics/SVG/1.1/DTD/svg11.dtd">
<!-- Generated by graphviz version 2.26.3 (20100126.1600)
 -->
<!-- Title: G Pages: 1 -->
<svg width="206pt" height="194pt"
 viewBox="0.00 0.00 206.00 194.00" xmlns="http://www.w3.org/2000/svg" xmlns:xlink="http://www.w3.org/1999/xlink">
<g id="graph1" class="graph" transform="scale(1 1) rotate(0) translate(4 190)">
<title>G</title>
<polygon fill="white" stroke="white" points="-4,5 -4,-190 203,-190 203,5 -4,5"/>
<!-- S1 -->
<g id="node1" class="node"><title>S1</title>
<ellipse fill="none" stroke="black" cx="27" cy="-167" rx="27" ry="18.3848"/>
<text text-anchor="middle" x="27" y="-163.4" font-family="Times Roman,serif" font-size="14.00">S1</text>
</g>
<!-- G1 -->
<g id="node3" class="node"><title>G1</title>
<ellipse fill="none" stroke="black" cx="45" cy="-93" rx="27" ry="18.3848"/>
<text text-anchor="middle" x="45" y="-89.4" font-family="Times Roman,serif" font-size="14.00">G1</text>
</g>
<!-- S1&#45;&#45;G1 -->
<g id="edge2" class="edge"><title>S1&#45;&#45;G1</title>
<path fill="none" stroke="black" d="M31.4494,-148.708C34.2187,-137.323 37.768,-122.732 40.5394,-111.338"/>
</g>
<!-- S2 -->
<g id="node4" class="node"><title>S2</title>
<ellipse fill="none" stroke="black" cx="99" cy="-167" rx="27" ry="18.3848"/>
<text text-anchor="middle" x="99" y="-163.4" font-family="Times Roman,serif" font-size="14.00">S2</text>
</g>
<!-- S2&#45;&#45;G1 -->
<g id="edge4" class="edge"><title>S2&#45;&#45;G1</title>
<path fill="none" stroke="black" d="M86.7466,-150.208C77.9091,-138.098 66.0312,-121.821 57.2049,-109.725"/>
</g>
<!-- G2 -->
<g id="node7" class="node"><title>G2</title>
<ellipse fill="none" stroke="black" cx="153" cy="-93" rx="27" ry="18.3848"/>
<text text-anchor="middle" x="153" y="-89.4" font-family="Times Roman,serif" font-size="14.00">G2</text>
</g>
<!-- S2&#45;&#45;G2 -->
<g id="edge6" class="edge"><title>S2&#45;&#45;G2</title>
<path fill="none" stroke="black" d="M111.253,-150.208C120.091,-138.098 131.969,-121.821 140.795,-109.725"/>
</g>
<!-- R2 -->
<g id="node11" class="node"><title>R2</title>
<ellipse fill="none" stroke="black" cx="153" cy="-19" rx="27" ry="18.3848"/>
<text text-anchor="middle" x="153" y="-15.4" font-family="Times Roman,serif" font-size="14.00">R2</text>
</g>
<!-- G2&#45;&#45;R2 -->
<g id="edge10" class="edge"><title>G2&#45;&#45;R2</title>
<path fill="none" stroke="black" d="M153,-74.3267C153,-63.1088 153,-48.8841 153,-37.6674"/>
</g>
<!-- S3 -->
<g id="node8" class="node"><title>S3</title>
<ellipse fill="none" stroke="black" cx="171" cy="-167" rx="27" ry="18.3848"/>
<text text-anchor="middle" x="171" y="-163.4" font-family="Times Roman,serif" font-size="14.00">S3</text>
</g>
<!-- S3&#45;&#45;G2 -->
<g id="edge8" class="edge"><title>S3&#45;&#45;G2</title>
<path fill="none" stroke="black" d="M166.551,-148.708C163.781,-137.323 160.232,-122.732 157.461,-111.338"/>
</g>
</g>
</svg>
