<?xml version="1.0" encoding="UTF-8" standalone="no"?>
<!DOCTYPE svg PUBLIC "-//W3C//DTD SVG 1.1//EN"
 "http://www.w3.org/Graphics/SVG/1.1/DTD/svg11.dtd">
<!-- Generated by graphviz version 2.26.3 (20100126.1600)
 -->
<!-- Title: G Pages: 1 -->
<svg width="278pt" height="194pt"
 viewBox="0.00 0.00 278.00 194.00" xmlns="http://www.w3.org/2000/svg" xmlns:xlink="http://www.w3.org/1999/xlink">
<g id="graph1" class="graph" transform="scale(1 1) rotate(0) translate(4 190)">
<title>G</title>
<polygon fill="white" stroke="white" points="-4,5 -4,-190 275,-190 275,5 -4,5"/>
<!-- S1 -->
<g id="node1" class="node"><title>S1</title>
<ellipse fill="none" stroke="black" cx="27" cy="-167" rx="27" ry="18.3848"/>
<text text-anchor="middle" x="27" y="-163.4" font-family="Times Roman,serif" font-size="14.00">S1</text>
</g>
<!-- G1 -->
<g id="node3" class="node"><title>G1</title>
<ellipse fill="none" stroke="black" cx="63" cy="-93" rx="27" ry="18.3848"/>
<text text-anchor="middle" x="63" y="-89.4" font-family="Times Roman,serif" font-size="14.00">G1</text>
</g>
<!-- S1&#45;&#45;G1 -->
<g id="edge2" class="edge"><title>S1&#45;&#45;G1</title>
<path fill="none" stroke="black" d="M35.7146,-149.087C41.3747,-137.452 48.7216,-122.35 54.3657,-110.748"/>
</g>
<!-- R1 -->
<g id="node7" class="node"><title>R1</title>
<ellipse fill="none" stroke="black" cx="63" cy="-19" rx="27" ry="18.3848"/>
<text text-anchor="middle" x="63" y="-15.4" font-family="Times Roman,serif" font-size="14.00">R1</text>
</g>
<!-- G1&#45;&#45;R1 -->
<g id="edge6" class="edge"><title>G1&#45;&#45;R1</title>
<path fill="none" stroke="black" d="M63,-74.3267C63,-63.1088 63,-48.8841 63,-37.6674"/>
</g>
<!-- S2 -->
<g id="node4" class="node"><title>S2</title>
<ellipse fill="none" stroke="black" cx="99" cy="-167" rx="27" ry="18.3848"/>
<text text-anchor="middle" x="99" y="-163.4" font-family="Times Roman,serif" font-size="14.00">S2</text>
</g>
<!-- S2&#45;&#45;G1 -->
<g id="edge4" class="edge"><title>S2&#45;&#45;G1</title>
<path fill="none" stroke="black" d="M90.2854,-149.087C84.6253,-137.452 77.2784,-122.35 71.6343,-110.748"/>
</g>
<!-- S3 -->
<g id="node8" class="node"><title>S3</title>
<ellipse fill="none" stroke="black" cx="171" cy="-167" rx="27" ry="18.3848"/>
<text text-anchor="middle" x="171" y="-163.4" font-family="Times Roman,serif" font-size="14.00">S3</text>
</g>
<!-- S4 -->
<g id="node9" class="node"><title>S4</title>
<ellipse fill="none" stroke="black" cx="243" cy="-167" rx="27" ry="18.3848"/>
<text text-anchor="middle" x="243" y="-163.4" font-family="Times Roman,serif" font-size="14.00">S4</text>
</g>
</g>
</svg>
