<?xml version="1.0" encoding="UTF-8" standalone="no"?>
<!DOCTYPE svg PUBLIC "-//W3C//DTD SVG 1.1//EN"
 "http://www.w3.org/Graphics/SVG/1.1/DTD/svg11.dtd">
<!-- Generated by graphviz version 2.26.3 (20100126.1600)
 -->
<!-- Title: G Pages: 1 -->
<svg width="452pt" height="120pt"
 viewBox="0.00 0.00 452.00 120.00" xmlns="http://www.w3.org/2000/svg" xmlns:xlink="http://www.w3.org/1999/xlink">
<g id="graph1" class="graph" transform="scale(1 1) rotate(0) translate(4 116)">
<title>G</title>
<polygon fill="white" stroke="white" points="-4,5 -4,-116 449,-116 449,5 -4,5"/>
<!-- SG1 -->
<g id="node1" class="node"><title>SG1</title>
<ellipse fill="none" stroke="black" cx="32" cy="-93" rx="32.0265" ry="18.3848"/>
<text text-anchor="middle" x="32" y="-89.4" font-family="Times Roman,serif" font-size="14.00">SG1</text>
</g>
<!-- S1 -->
<g id="node3" class="node"><title>S1</title>
<ellipse fill="none" stroke="black" cx="32" cy="-19" rx="27" ry="18.3848"/>
<text text-anchor="middle" x="32" y="-15.4" font-family="Times Roman,serif" font-size="14.00">S1</text>
</g>
<!-- SG1&#45;&#45;S1 -->
<g id="edge2" class="edge"><title>SG1&#45;&#45;S1</title>
<path fill="none" stroke="black" d="M32,-74.3267C32,-63.1088 32,-48.8841 32,-37.6674"/>
</g>
<!-- R1 -->
<g id="node5" class="node"><title>R1</title>
<ellipse fill="none" stroke="black" cx="109" cy="-93" rx="27" ry="18.3848"/>
<text text-anchor="middle" x="109" y="-89.4" font-family="Times Roman,serif" font-size="14.00">R1</text>
</g>
<!-- SG1&#45;&#45;R1 -->
<g id="edge4" class="edge"><title>SG1&#45;&#45;R1</title>
<path fill="none" stroke="black" d="M64.1836,-93C70.0191,-93 75.8545,-93 81.69,-93"/>
</g>
<!-- SG2 -->
<g id="node6" class="node"><title>SG2</title>
<ellipse fill="none" stroke="black" cx="186" cy="-93" rx="32.0265" ry="18.3848"/>
<text text-anchor="middle" x="186" y="-89.4" font-family="Times Roman,serif" font-size="14.00">SG2</text>
</g>
<!-- S2 -->
<g id="node8" class="node"><title>S2</title>
<ellipse fill="none" stroke="black" cx="186" cy="-19" rx="27" ry="18.3848"/>
<text text-anchor="middle" x="186" y="-15.4" font-family="Times Roman,serif" font-size="14.00">S2</text>
</g>
<!-- SG2&#45;&#45;S2 -->
<g id="edge6" class="edge"><title>SG2&#45;&#45;S2</title>
<path fill="none" stroke="black" d="M186,-74.3267C186,-63.1088 186,-48.8841 186,-37.6674"/>
</g>
<!-- R2 -->
<g id="node10" class="node"><title>R2</title>
<ellipse fill="none" stroke="black" cx="263" cy="-93" rx="27" ry="18.3848"/>
<text text-anchor="middle" x="263" y="-89.4" font-family="Times Roman,serif" font-size="14.00">R2</text>
</g>
<!-- SG2&#45;&#45;R2 -->
<g id="edge8" class="edge"><title>SG2&#45;&#45;R2</title>
<path fill="none" stroke="black" d="M218.184,-93C224.019,-93 229.855,-93 235.69,-93"/>
</g>
<!-- SG3 -->
<g id="node11" class="node"><title>SG3</title>
<ellipse fill="none" stroke="black" cx="340" cy="-93" rx="32.0265" ry="18.3848"/>
<text text-anchor="middle" x="340" y="-89.4" font-family="Times Roman,serif" font-size="14.00">SG3</text>
</g>
<!-- S3 -->
<g id="node13" class="node"><title>S3</title>
<ellipse fill="none" stroke="black" cx="340" cy="-19" rx="27" ry="18.3848"/>
<text text-anchor="middle" x="340" y="-15.4" font-family="Times Roman,serif" font-size="14.00">S3</text>
</g>
<!-- SG3&#45;&#45;S3 -->
<g id="edge10" class="edge"><title>SG3&#45;&#45;S3</title>
<path fill="none" stroke="black" d="M340,-74.3267C340,-63.1088 340,-48.8841 340,-37.6674"/>
</g>
<!-- R3 -->
<g id="node15" class="node"><title>R3</title>
<ellipse fill="none" stroke="black" cx="417" cy="-93" rx="27" ry="18.3848"/>
<text text-anchor="middle" x="417" y="-89.4" font-family="Times Roman,serif" font-size="14.00">R3</text>
</g>
<!-- SG3&#45;&#45;R3 -->
<g id="edge12" class="edge"><title>SG3&#45;&#45;R3</title>
<path fill="none" stroke="black" d="M372.184,-93C378.019,-93 383.855,-93 389.69,-93"/>
</g>
</g>
</svg>
