<?xml version="1.0" encoding="UTF-8" standalone="no"?>
<!DOCTYPE svg PUBLIC "-//W3C//DTD SVG 1.1//EN"
 "http://www.w3.org/Graphics/SVG/1.1/DTD/svg11.dtd">
<!-- Generated by graphviz version 2.26.3 (20100126.1600)
 -->
<!-- Title: G Pages: 1 -->
<svg width="400pt" height="342pt"
 viewBox="0.00 0.00 400.00 342.00" xmlns="http://www.w3.org/2000/svg" xmlns:xlink="http://www.w3.org/1999/xlink">
<g id="graph1" class="graph" transform="scale(1 1) rotate(0) translate(4 338)">
<title>G</title>
<polygon fill="white" stroke="white" points="-4,5 -4,-338 397,-338 397,5 -4,5"/>
<!-- R1 -->
<g id="node1" class="node"><title>R1</title>
<ellipse fill="none" stroke="black" cx="32" cy="-315" rx="27" ry="18.3848"/>
<text text-anchor="middle" x="32" y="-311.4" font-family="Times Roman,serif" font-size="14.00">R1</text>
</g>
<!-- SG1 -->
<g id="node3" class="node"><title>SG1</title>
<ellipse fill="none" stroke="black" cx="32" cy="-241" rx="32.0265" ry="18.3848"/>
<text text-anchor="middle" x="32" y="-237.4" font-family="Times Roman,serif" font-size="14.00">SG1</text>
</g>
<!-- R1&#45;&#45;SG1 -->
<g id="edge2" class="edge"><title>R1&#45;&#45;SG1</title>
<path fill="none" stroke="black" d="M32,-296.327C32,-285.109 32,-270.884 32,-259.667"/>
</g>
<!-- S1 -->
<g id="node5" class="node"><title>S1</title>
<ellipse fill="none" stroke="black" cx="37" cy="-167" rx="27" ry="18.3848"/>
<text text-anchor="middle" x="37" y="-163.4" font-family="Times Roman,serif" font-size="14.00">S1</text>
</g>
<!-- SG1&#45;&#45;S1 -->
<g id="edge4" class="edge"><title>SG1&#45;&#45;S1</title>
<path fill="none" stroke="black" d="M33.2617,-222.327C34.0197,-211.109 34.9808,-196.884 35.7387,-185.667"/>
</g>
<!-- G1 -->
<g id="node21" class="node"><title>G1</title>
<ellipse fill="none" stroke="black" cx="73" cy="-93" rx="27" ry="18.3848"/>
<text text-anchor="middle" x="73" y="-89.4" font-family="Times Roman,serif" font-size="14.00">G1</text>
</g>
<!-- S1&#45;&#45;G1 -->
<g id="edge16" class="edge"><title>S1&#45;&#45;G1</title>
<path fill="none" stroke="black" d="M45.7146,-149.087C51.3747,-137.452 58.7216,-122.35 64.3657,-110.748"/>
</g>
<!-- SG2 -->
<g id="node6" class="node"><title>SG2</title>
<ellipse fill="none" stroke="black" cx="114" cy="-241" rx="32.0265" ry="18.3848"/>
<text text-anchor="middle" x="114" y="-237.4" font-family="Times Roman,serif" font-size="14.00">SG2</text>
</g>
<!-- S2 -->
<g id="node8" class="node"><title>S2</title>
<ellipse fill="none" stroke="black" cx="114" cy="-167" rx="27" ry="18.3848"/>
<text text-anchor="middle" x="114" y="-163.4" font-family="Times Roman,serif" font-size="14.00">S2</text>
</g>
<!-- SG2&#45;&#45;S2 -->
<g id="edge6" class="edge"><title>SG2&#45;&#45;S2</title>
<path fill="none" stroke="black" d="M114,-222.327C114,-211.109 114,-196.884 114,-185.667"/>
</g>
<!-- S2&#45;&#45;G1 -->
<g id="edge18" class="edge"><title>S2&#45;&#45;G1</title>
<path fill="none" stroke="black" d="M104.284,-149.463C97.7478,-137.667 89.1678,-122.181 82.6467,-110.411"/>
</g>
<!-- G2 -->
<g id="node24" class="node"><title>G2</title>
<ellipse fill="none" stroke="black" cx="196" cy="-93" rx="27" ry="18.3848"/>
<text text-anchor="middle" x="196" y="-89.4" font-family="Times Roman,serif" font-size="14.00">G2</text>
</g>
<!-- S2&#45;&#45;G2 -->
<g id="edge20" class="edge"><title>S2&#45;&#45;G2</title>
<path fill="none" stroke="black" d="M130.594,-152.025C144.821,-139.186 165.211,-120.785 179.431,-107.953"/>
</g>
<!-- SG3 -->
<g id="node9" class="node"><title>SG3</title>
<ellipse fill="none" stroke="black" cx="196" cy="-241" rx="32.0265" ry="18.3848"/>
<text text-anchor="middle" x="196" y="-237.4" font-family="Times Roman,serif" font-size="14.00">SG3</text>
</g>
<!-- S3 -->
<g id="node11" class="node"><title>S3</title>
<ellipse fill="none" stroke="black" cx="196" cy="-167" rx="27" ry="18.3848"/>
<text text-anchor="middle" x="196" y="-163.4" font-family="Times Roman,serif" font-size="14.00">S3</text>
</g>
<!-- SG3&#45;&#45;S3 -->
<g id="edge8" class="edge"><title>SG3&#45;&#45;S3</title>
<path fill="none" stroke="black" d="M196,-222.327C196,-211.109 196,-196.884 196,-185.667"/>
</g>
<!-- S3&#45;&#45;G2 -->
<g id="edge22" class="edge"><title>S3&#45;&#45;G2</title>
<path fill="none" stroke="black" d="M196,-148.327C196,-137.109 196,-122.884 196,-111.667"/>
</g>
<!-- SG4 -->
<g id="node12" class="node"><title>SG4</title>
<ellipse fill="none" stroke="black" cx="278" cy="-241" rx="32.0265" ry="18.3848"/>
<text text-anchor="middle" x="278" y="-237.4" font-family="Times Roman,serif" font-size="14.00">SG4</text>
</g>
<!-- S4 -->
<g id="node14" class="node"><title>S4</title>
<ellipse fill="none" stroke="black" cx="278" cy="-167" rx="27" ry="18.3848"/>
<text text-anchor="middle" x="278" y="-163.4" font-family="Times Roman,serif" font-size="14.00">S4</text>
</g>
<!-- SG4&#45;&#45;S4 -->
<g id="edge10" class="edge"><title>SG4&#45;&#45;S4</title>
<path fill="none" stroke="black" d="M278,-222.327C278,-211.109 278,-196.884 278,-185.667"/>
</g>
<!-- S4&#45;&#45;G2 -->
<g id="edge24" class="edge"><title>S4&#45;&#45;G2</title>
<path fill="none" stroke="black" d="M261.406,-152.025C247.179,-139.186 226.789,-120.785 212.569,-107.953"/>
</g>
<!-- G3 -->
<g id="node28" class="node"><title>G3</title>
<ellipse fill="none" stroke="black" cx="316" cy="-93" rx="27" ry="18.3848"/>
<text text-anchor="middle" x="316" y="-89.4" font-family="Times Roman,serif" font-size="14.00">G3</text>
</g>
<!-- S4&#45;&#45;G3 -->
<g id="edge26" class="edge"><title>S4&#45;&#45;G3</title>
<path fill="none" stroke="black" d="M287.005,-149.463C293.019,-137.752 300.9,-122.405 306.927,-110.668"/>
</g>
<!-- SG5 -->
<g id="node15" class="node"><title>SG5</title>
<ellipse fill="none" stroke="black" cx="360" cy="-241" rx="32.0265" ry="18.3848"/>
<text text-anchor="middle" x="360" y="-237.4" font-family="Times Roman,serif" font-size="14.00">SG5</text>
</g>
<!-- S5 -->
<g id="node17" class="node"><title>S5</title>
<ellipse fill="none" stroke="black" cx="355" cy="-167" rx="27" ry="18.3848"/>
<text text-anchor="middle" x="355" y="-163.4" font-family="Times Roman,serif" font-size="14.00">S5</text>
</g>
<!-- SG5&#45;&#45;S5 -->
<g id="edge12" class="edge"><title>SG5&#45;&#45;S5</title>
<path fill="none" stroke="black" d="M358.738,-222.327C357.98,-211.109 357.019,-196.884 356.261,-185.667"/>
</g>
<!-- S5&#45;&#45;G3 -->
<g id="edge28" class="edge"><title>S5&#45;&#45;G3</title>
<path fill="none" stroke="black" d="M345.758,-149.463C339.541,-137.667 331.379,-122.181 325.176,-110.411"/>
</g>
<!-- R5 -->
<g id="node18" class="node"><title>R5</title>
<ellipse fill="none" stroke="black" cx="360" cy="-315" rx="27" ry="18.3848"/>
<text text-anchor="middle" x="360" y="-311.4" font-family="Times Roman,serif" font-size="14.00">R5</text>
</g>
<!-- R5&#45;&#45;SG5 -->
<g id="edge14" class="edge"><title>R5&#45;&#45;SG5</title>
<path fill="none" stroke="black" d="M360,-296.327C360,-285.109 360,-270.884 360,-259.667"/>
</g>
<!-- R20 -->
<g id="node31" class="node"><title>R20</title>
<ellipse fill="none" stroke="black" cx="196" cy="-19" rx="31.1127" ry="18.3848"/>
<text text-anchor="middle" x="196" y="-15.4" font-family="Times Roman,serif" font-size="14.00">R20</text>
</g>
<!-- G2&#45;&#45;R20 -->
<g id="edge30" class="edge"><title>G2&#45;&#45;R20</title>
<path fill="none" stroke="black" d="M196,-74.3267C196,-63.1088 196,-48.8841 196,-37.6674"/>
</g>
</g>
</svg>
