<?xml version="1.0" encoding="UTF-8" standalone="no"?>
<!DOCTYPE svg PUBLIC "-//W3C//DTD SVG 1.1//EN"
 "http://www.w3.org/Graphics/SVG/1.1/DTD/svg11.dtd">
<!-- Generated by graphviz version 2.26.3 (20100126.1600)
 -->
<!-- Title: G Pages: 1 -->
<svg width="400pt" height="402pt"
 viewBox="0.00 0.00 400.00 402.00" xmlns="http://www.w3.org/2000/svg" xmlns:xlink="http://www.w3.org/1999/xlink">
<g id="graph1" class="graph" transform="scale(1 1) rotate(0) translate(4 398)">
<title>G</title>
<polygon fill="white" stroke="white" points="-4,5 -4,-398 397,-398 397,5 -4,5"/>
<g id="graph2" class="cluster"><title>cluster_A</title>
<polygon fill="none" stroke="black" points="16,-132 16,-274 376,-274 376,-132 16,-132"/>
<text text-anchor="middle" x="196" y="-257.4" font-family="Times Roman,serif" font-size="14.00"> &#160;&#160;&#160;&#160;&#160;&#160;&#160;&#160;&#160;&#160;&#160;&#160;&#160;&#160;&#160;A</text>
</g>
<g id="graph3" class="cluster"><title>cluster_B</title>
<polygon fill="none" stroke="black" points="88,-140 88,-240 304,-240 304,-140 88,-140"/>
<text text-anchor="middle" x="196" y="-223.4" font-family="Times Roman,serif" font-size="14.00"> &#160;&#160;&#160;&#160;&#160;&#160;&#160;&#160;&#160;&#160;&#160;&#160;&#160;&#160;&#160;B</text>
</g>
<!-- R3 -->
<g id="node1" class="node"><title>R3</title>
<ellipse fill="none" stroke="black" cx="196" cy="-375" rx="27" ry="18.3848"/>
<text text-anchor="middle" x="196" y="-371.4" font-family="Times Roman,serif" font-size="14.00">R3</text>
</g>
<!-- SG3 -->
<g id="node3" class="node"><title>SG3</title>
<ellipse fill="none" stroke="black" cx="196" cy="-301" rx="32.0265" ry="18.3848"/>
<text text-anchor="middle" x="196" y="-297.4" font-family="Times Roman,serif" font-size="14.00">SG3</text>
</g>
<!-- R3&#45;&#45;SG3 -->
<g id="edge2" class="edge"><title>R3&#45;&#45;SG3</title>
<path fill="none" stroke="black" d="M196,-356.327C196,-345.109 196,-330.884 196,-319.667"/>
</g>
<!-- S3 -->
<g id="node11" class="node"><title>S3</title>
<ellipse fill="none" stroke="black" cx="196" cy="-177" rx="24.3145" ry="24.7487"/>
<ellipse fill="none" stroke="black" cx="196" cy="-177" rx="28.2444" ry="28.7487"/>
<text text-anchor="middle" x="196" y="-173.4" font-family="Times Roman,serif" font-size="14.00">S3</text>
</g>
<!-- SG3&#45;&#45;S3 -->
<g id="edge8" class="edge"><title>SG3&#45;&#45;S3</title>
<path fill="none" stroke="black" d="M196,-282.436C196,-262.167 196,-229.452 196,-205.835"/>
</g>
<!-- SG1 -->
<g id="node4" class="node"><title>SG1</title>
<ellipse fill="none" stroke="black" cx="32" cy="-301" rx="32.0265" ry="18.3848"/>
<text text-anchor="middle" x="32" y="-297.4" font-family="Times Roman,serif" font-size="14.00">SG1</text>
</g>
<!-- S1 -->
<g id="node6" class="node"><title>S1</title>
<ellipse fill="none" stroke="black" cx="51" cy="-177" rx="27" ry="18.3848"/>
<text text-anchor="middle" x="51" y="-173.4" font-family="Times Roman,serif" font-size="14.00">S1</text>
</g>
<!-- SG1&#45;&#45;S1 -->
<g id="edge4" class="edge"><title>SG1&#45;&#45;S1</title>
<path fill="none" stroke="black" d="M34.8445,-282.436C38.4264,-259.059 44.545,-219.127 48.1361,-195.691"/>
</g>
<!-- G1 -->
<g id="node19" class="node"><title>G1</title>
<ellipse fill="none" stroke="black" cx="84" cy="-93" rx="27" ry="18.3848"/>
<text text-anchor="middle" x="84" y="-89.4" font-family="Times Roman,serif" font-size="14.00">G1</text>
</g>
<!-- S1&#45;&#45;G1 -->
<g id="edge14" class="edge"><title>S1&#45;&#45;G1</title>
<path fill="none" stroke="black" d="M58.1605,-158.773C63.7336,-144.587 71.4263,-125.006 76.9668,-110.903"/>
</g>
<!-- SG2 -->
<g id="node7" class="node"><title>SG2</title>
<ellipse fill="none" stroke="black" cx="114" cy="-301" rx="32.0265" ry="18.3848"/>
<text text-anchor="middle" x="114" y="-297.4" font-family="Times Roman,serif" font-size="14.00">SG2</text>
</g>
<!-- S2 -->
<g id="node9" class="node"><title>S2</title>
<ellipse fill="none" stroke="black" cx="123" cy="-177" rx="27" ry="18.3848"/>
<text text-anchor="middle" x="123" y="-173.4" font-family="Times Roman,serif" font-size="14.00">S2</text>
</g>
<!-- SG2&#45;&#45;S2 -->
<g id="edge6" class="edge"><title>SG2&#45;&#45;S2</title>
<path fill="none" stroke="black" d="M115.347,-282.436C117.044,-259.059 119.942,-219.127 121.643,-195.691"/>
</g>
<!-- S2&#45;&#45;G1 -->
<g id="edge16" class="edge"><title>S2&#45;&#45;G1</title>
<path fill="none" stroke="black" d="M114.729,-159.186C108.111,-144.931 98.8743,-125.037 92.259,-110.789"/>
</g>
<!-- G2 -->
<g id="node22" class="node"><title>G2</title>
<ellipse fill="none" stroke="black" cx="196" cy="-93" rx="27" ry="18.3848"/>
<text text-anchor="middle" x="196" y="-89.4" font-family="Times Roman,serif" font-size="14.00">G2</text>
</g>
<!-- S2&#45;&#45;G2 -->
<g id="edge18" class="edge"><title>S2&#45;&#45;G2</title>
<path fill="none" stroke="black" d="M135.673,-160.482C142.428,-151.853 150.98,-141.201 159,-132 165.868,-124.12 173.809,-115.67 180.569,-108.657"/>
</g>
<!-- S3&#45;&#45;G2 -->
<g id="edge20" class="edge"><title>S3&#45;&#45;G2</title>
<path fill="none" stroke="black" d="M196,-148.092C196,-136.038 196,-122.385 196,-111.686"/>
</g>
<!-- SG4 -->
<g id="node12" class="node"><title>SG4</title>
<ellipse fill="none" stroke="black" cx="278" cy="-301" rx="32.0265" ry="18.3848"/>
<text text-anchor="middle" x="278" y="-297.4" font-family="Times Roman,serif" font-size="14.00">SG4</text>
</g>
<!-- S4 -->
<g id="node14" class="node"><title>S4</title>
<ellipse fill="none" stroke="black" cx="269" cy="-177" rx="27" ry="18.3848"/>
<text text-anchor="middle" x="269" y="-173.4" font-family="Times Roman,serif" font-size="14.00">S4</text>
</g>
<!-- SG4&#45;&#45;S4 -->
<g id="edge10" class="edge"><title>SG4&#45;&#45;S4</title>
<path fill="none" stroke="black" d="M276.653,-282.436C274.956,-259.059 272.058,-219.127 270.357,-195.691"/>
</g>
<!-- S4&#45;&#45;G2 -->
<g id="edge22" class="edge"><title>S4&#45;&#45;G2</title>
<path fill="none" stroke="black" d="M256.327,-160.482C249.572,-151.853 241.02,-141.201 233,-132 226.132,-124.12 218.191,-115.67 211.431,-108.657"/>
</g>
<!-- G3 -->
<g id="node26" class="node"><title>G3</title>
<ellipse fill="none" stroke="black" cx="308" cy="-93" rx="27" ry="18.3848"/>
<text text-anchor="middle" x="308" y="-89.4" font-family="Times Roman,serif" font-size="14.00">G3</text>
</g>
<!-- S4&#45;&#45;G3 -->
<g id="edge24" class="edge"><title>S4&#45;&#45;G3</title>
<path fill="none" stroke="black" d="M277.271,-159.186C283.889,-144.931 293.126,-125.037 299.741,-110.789"/>
</g>
<!-- SG5 -->
<g id="node15" class="node"><title>SG5</title>
<ellipse fill="none" stroke="black" cx="360" cy="-301" rx="32.0265" ry="18.3848"/>
<text text-anchor="middle" x="360" y="-297.4" font-family="Times Roman,serif" font-size="14.00">SG5</text>
</g>
<!-- S5 -->
<g id="node17" class="node"><title>S5</title>
<ellipse fill="none" stroke="black" cx="341" cy="-177" rx="27" ry="18.3848"/>
<text text-anchor="middle" x="341" y="-173.4" font-family="Times Roman,serif" font-size="14.00">S5</text>
</g>
<!-- SG5&#45;&#45;S5 -->
<g id="edge12" class="edge"><title>SG5&#45;&#45;S5</title>
<path fill="none" stroke="black" d="M357.156,-282.436C353.574,-259.059 347.455,-219.127 343.864,-195.691"/>
</g>
<!-- S5&#45;&#45;G3 -->
<g id="edge26" class="edge"><title>S5&#45;&#45;G3</title>
<path fill="none" stroke="black" d="M333.839,-158.773C328.266,-144.587 320.574,-125.006 315.033,-110.903"/>
</g>
<!-- R10 -->
<g id="node31" class="node"><title>R10</title>
<ellipse fill="none" stroke="black" cx="84" cy="-19" rx="31.1127" ry="18.3848"/>
<text text-anchor="middle" x="84" y="-15.4" font-family="Times Roman,serif" font-size="14.00">R10</text>
</g>
<!-- G1&#45;&#45;R10 -->
<g id="edge30" class="edge"><title>G1&#45;&#45;R10</title>
<path fill="none" stroke="black" d="M84,-74.3267C84,-63.1088 84,-48.8841 84,-37.6674"/>
</g>
<!-- R20 -->
<g id="node33" class="node"><title>R20</title>
<ellipse fill="none" stroke="black" stroke-dasharray="5,2" cx="196" cy="-19" rx="31.1127" ry="18.3848"/>
<text text-anchor="middle" x="196" y="-15.4" font-family="Times Roman,serif" font-size="14.00">R20</text>
</g>
<!-- G2&#45;&#45;R20 -->
<g id="edge32" class="edge"><title>G2&#45;&#45;R20</title>
<path fill="none" stroke="black" stroke-dasharray="5,2" d="M196,-74.3267C196,-63.1088 196,-48.8841 196,-37.6674"/>
</g>
<!-- R30 -->
<g id="node35" class="node"><title>R30</title>
<ellipse fill="none" stroke="black" cx="308" cy="-19" rx="31.1127" ry="18.3848"/>
<text text-anchor="middle" x="308" y="-15.4" font-family="Times Roman,serif" font-size="14.00">R30</text>
</g>
<!-- G3&#45;&#45;R30 -->
<g id="edge34" class="edge"><title>G3&#45;&#45;R30</title>
<path fill="none" stroke="black" d="M308,-74.3267C308,-63.1088 308,-48.8841 308,-37.6674"/>
</g>
</g>
</svg>
